<?xml version="1.0" encoding="UTF-8"?>
<svg width="248" height="117" viewBox="0 0 248 117" fill="none" xmlns="http://www.w3.org/2000/svg">
  <path d="M9.79761 112.09V74.8391L13.0642 78.2203H1.31589V71.9736H17.2478V112.09H9.79761ZM31.6242 112.09V74.8391L34.8909 78.2203H23.1425V71.9736H39.0744V112.09H31.6242ZM63.7665 112.663C60.5954 112.663 57.7299 111.861 55.1701 110.256C52.6486 108.651 50.6618 106.321 49.21 103.264C47.7582 100.17 47.0323 96.4254 47.0323 92.0317C47.0323 87.638 47.7582 83.913 49.21 80.8565C50.6618 77.7618 52.6486 75.4121 55.1701 73.8075C57.7299 72.2028 60.5954 71.4005 63.7665 71.4005C66.9758 71.4005 69.8412 72.2028 72.3628 73.8075C74.8844 75.4121 76.8711 77.7618 78.3229 80.8565C79.813 83.913 80.558 87.638 80.558 92.0317C80.558 96.4254 79.813 100.17 78.3229 103.264C76.8711 106.321 74.8844 108.651 72.3628 110.256C69.8412 111.861 66.9758 112.663 63.7665 112.663ZM63.7665 106.187C65.6386 106.187 67.2623 105.69 68.6377 104.697C70.0132 103.665 71.0829 102.099 71.847 99.9977C72.6494 97.8963 73.0505 95.241 73.0505 92.0317C73.0505 88.7842 72.6494 86.1289 71.847 84.0658C71.0829 81.9645 70.0132 80.4171 68.6377 79.4238C67.2623 78.3922 65.6386 77.8764 63.7665 77.8764C61.9708 77.8764 60.3662 78.3922 58.9525 79.4238C57.5771 80.4171 56.4882 81.9645 55.6859 84.0658C54.9218 86.1289 54.5397 88.7842 54.5397 92.0317C54.5397 95.241 54.9218 97.8963 55.6859 99.9977C56.4882 102.099 57.5771 103.665 58.9525 104.697C60.3662 105.69 61.9708 106.187 63.7665 106.187ZM105.099 105.786C107.2 106.512 109.053 106.703 110.658 106.359C112.262 106.015 113.695 104.85 114.956 102.863L116.904 99.8257L117.649 99.0234L131.633 71.9736H138.968L121.546 104.353C120.133 107.066 118.452 109.129 116.503 110.543C114.555 111.956 112.453 112.739 110.199 112.892C107.983 113.083 105.672 112.663 103.265 111.631L105.099 105.786ZM117.477 105.442L99.5971 71.9736H107.563L121.546 99.7111L117.477 105.442ZM144.207 112.09V71.9736H171.428L171.371 78.2776H149.766L151.485 76.501L151.542 112.09H144.207ZM177.73 112.09V71.9736H204.952L204.895 78.2776H183.289L185.008 76.501L185.066 112.09H177.73ZM211.769 105.786C213.871 106.512 215.724 106.703 217.328 106.359C218.933 106.015 220.366 104.85 221.627 102.863L223.575 99.8257L224.32 99.0234L238.303 71.9736H245.639L228.217 104.353C226.803 107.066 225.122 109.129 223.174 110.543C221.225 111.956 219.124 112.739 216.87 112.892C214.654 113.083 212.342 112.663 209.936 111.631L211.769 105.786ZM224.148 105.442L206.268 71.9736H214.234L228.217 99.7111L224.148 105.442Z" fill="#18bc9c"/>
</svg> 